<svg xmlns="http://www.w3.org/2000/svg" viewBox="0 0 96 96" role="img">
  <title>Pepperoni menu icon</title>
  <circle cx="48" cy="48" r="43" fill="#FFF3D6" stroke="#C61B2B" stroke-width="5"/>
  <circle cx="48" cy="48" r="37.5" fill="#F7C65A" opacity=".22"/>
  <g>
    <circle cx="48" cy="49" r="30" fill="#D98B39" stroke="#6F1D24" stroke-width="3"/>
    <circle cx="48" cy="49" r="25.5" fill="#D8492F"/>
    <circle cx="48" cy="49" r="22.5" fill="#F4E0A5" stroke="#6F1D24" stroke-width="1.5"/>
    <circle cx="37" cy="36" r="4.4" fill="#C61B2B" stroke="#6F1D24" stroke-width="1.4"/><circle cx="35.8" cy="35" r=".7" fill="#F7C65A"/><circle cx="55" cy="35" r="4.4" fill="#C61B2B" stroke="#6F1D24" stroke-width="1.4"/><circle cx="53.8" cy="34" r=".7" fill="#F7C65A"/><circle cx="48" cy="47" r="4.4" fill="#C61B2B" stroke="#6F1D24" stroke-width="1.4"/><circle cx="46.8" cy="46" r=".7" fill="#F7C65A"/><circle cx="34" cy="51" r="4.4" fill="#C61B2B" stroke="#6F1D24" stroke-width="1.4"/><circle cx="32.8" cy="50" r=".7" fill="#F7C65A"/><circle cx="61" cy="51" r="4.4" fill="#C61B2B" stroke="#6F1D24" stroke-width="1.4"/><circle cx="59.8" cy="50" r=".7" fill="#F7C65A"/><circle cx="42" cy="63" r="4.4" fill="#C61B2B" stroke="#6F1D24" stroke-width="1.4"/><circle cx="40.8" cy="62" r=".7" fill="#F7C65A"/><circle cx="57" cy="64" r="4.4" fill="#C61B2B" stroke="#6F1D24" stroke-width="1.4"/><circle cx="55.8" cy="63" r=".7" fill="#F7C65A"/>
    <ellipse cx="33" cy="38" rx="1.74" ry="0.864" transform="rotate(-60 33 38)" fill="#784029" opacity=".9"/><ellipse cx="39" cy="34" rx="1.45" ry="0.72" transform="rotate(-29 39 34)" fill="#784029" opacity=".9"/><ellipse cx="46" cy="37" rx="1.885" ry="0.9359999999999999" transform="rotate(2 46 37)" fill="#784029" opacity=".9"/><ellipse cx="54" cy="34" rx="1.595" ry="0.792" transform="rotate(33 54 34)" fill="#784029" opacity=".9"/><ellipse cx="62" cy="40" rx="1.74" ry="0.864" transform="rotate(-56 62 40)" fill="#784029" opacity=".9"/><ellipse cx="37" cy="44" rx="1.16" ry="0.576" transform="rotate(-25 37 44)" fill="#784029" opacity=".9"/><ellipse cx="51" cy="43" rx="1.595" ry="0.792" transform="rotate(6 51 43)" fill="#784029" opacity=".9"/><ellipse cx="58" cy="47" rx="1.16" ry="0.576" transform="rotate(37 58 47)" fill="#784029" opacity=".9"/><ellipse cx="31" cy="51" rx="1.45" ry="0.72" transform="rotate(-52 31 51)" fill="#784029" opacity=".9"/><ellipse cx="42" cy="50" rx="1.305" ry="0.648" transform="rotate(-21 42 50)" fill="#784029" opacity=".9"/><ellipse cx="52" cy="53" rx="1.74" ry="0.864" transform="rotate(10 52 53)" fill="#784029" opacity=".9"/><ellipse cx="64" cy="54" rx="1.45" ry="0.72" transform="rotate(41 64 54)" fill="#784029" opacity=".9"/><ellipse cx="34" cy="59" rx="1.595" ry="0.792" transform="rotate(-48 34 59)" fill="#784029" opacity=".9"/><ellipse cx="43" cy="61" rx="1.16" ry="0.576" transform="rotate(-17 43 61)" fill="#784029" opacity=".9"/><ellipse cx="50" cy="59" rx="1.305" ry="0.648" transform="rotate(14 50 59)" fill="#784029" opacity=".9"/><ellipse cx="59" cy="63" rx="1.74" ry="0.864" transform="rotate(45 59 63)" fill="#784029" opacity=".9"/><ellipse cx="39" cy="67" rx="1.16" ry="0.576" transform="rotate(-44 39 67)" fill="#784029" opacity=".9"/><ellipse cx="53" cy="68" rx="1.305" ry="0.648" transform="rotate(-13 53 68)" fill="#784029" opacity=".9"/>
    <g stroke="#6F1D24" stroke-width="1.15" opacity=".72">
      <path d="M48 27v44M26 49h44M32 33l32 32M64 33 32 65"/>
    </g>
    <circle cx="48" cy="49" r="27.8" fill="none" stroke="#F7C65A" stroke-width="2" opacity=".75"/>
    <path d="M29 35q8-10 20-11M60 27q7 4 10 10M26 59q4 8 12 12M58 72q8-3 12-10" fill="none" stroke="#FFF3D6" stroke-width="2" stroke-linecap="round" opacity=".7"/>
  </g>
</svg>
